<svg version="1.1" xmlns="http://www.w3.org/2000/svg" viewBox="0 0 800 800">
<path d="M0 0 C0 52.8 0 105.6 0 160 C7.92 160 15.84 160 24 160 C28.46393703 160.27492643 32.77022859 160.5797345 37.1875 161.125 C38.29150146 161.25624268 39.39550293 161.38748535 40.53295898 161.52270508 C62.93384539 164.37298297 84.64799622 169.71362431 106 177 C106.90089355 177.30631348 107.80178711 177.61262695 108.72998047 177.92822266 C147.66169663 191.41046898 183.28723683 213.17750722 213.67578125 240.89453125 C215.71273925 242.73977555 217.78270847 244.5308167 219.875 246.3125 C228.23165146 253.62245976 235.89924321 261.51281174 242.76953125 270.234375 C244.57932783 272.47839598 246.43367807 274.63179825 248.34765625 276.78515625 C288.50669907 322.46841163 312.13231353 384.02430505 319 444 C319.14139404 445.19580688 319.14139404 445.19580688 319.28564453 446.41577148 C322.0603308 473.91693292 321.72053092 503.76257898 317 531 C316.80132324 532.15338867 316.60264648 533.30677734 316.39794922 534.49511719 C313.26093459 552.07649803 308.76581862 569.10383843 303 586 C302.69368652 586.90089355 302.38737305 587.80178711 302.07177734 588.72998047 C288.58953102 627.66169663 266.82249278 663.28723683 239.10546875 693.67578125 C237.26022445 695.71273925 235.4691833 697.78270847 233.6875 699.875 C226.37754024 708.23165146 218.48718826 715.89924321 209.765625 722.76953125 C207.52160402 724.57932783 205.36820175 726.43367807 203.21484375 728.34765625 C157.54756524 768.49265419 95.96591542 792.16145137 36 799 C34.7617749 799.14139404 34.7617749 799.14139404 33.49853516 799.28564453 C24.3934912 800.18219545 15.27992777 800.22079627 6.13916016 800.24023438 C3.40105421 800.24990795 0.66371118 800.28101258 -2.07421875 800.3125 C-17.17067992 800.40401535 -31.66423637 798.82127445 -46.125 794.25 C-46.95354492 793.99323486 -47.78208984 793.73646973 -48.63574219 793.47192383 C-67.32266237 787.50896705 -84.77311214 778.39167306 -100 766 C-100.56460937 765.54222168 -101.12921875 765.08444336 -101.7109375 764.61279297 C-130.0068322 741.51426102 -147.93865957 711.17174317 -157 676 C-157.18079102 675.31905273 -157.36158203 674.63810547 -157.54785156 673.93652344 C-162.90110245 652.74701543 -162.6002956 625.0934485 -157 604 C-156.79600586 603.20819336 -156.59201172 602.41638672 -156.38183594 601.60058594 C-150.44886521 579.08638698 -140.74856548 558.12303726 -126 540 C-125.54222168 539.43539062 -125.08444336 538.87078125 -124.61279297 538.2890625 C-99.14731512 507.09363929 -65.18009912 488.83601982 -26 481 C-175.82 480.67 -325.64 480.34 -480 480 C-480 374.2602515 -447.0235181 273.54144081 -370 173 C-369.48550293 172.38640625 -368.97100586 171.7728125 -368.44091797 171.140625 C-365.00328142 167.0560451 -361.52003383 163.01372721 -358 159 C-357.20078125 158.08734375 -356.4015625 157.1746875 -355.578125 156.234375 C-349.73630951 149.72279723 -343.61367652 143.48736902 -337.45355225 137.27832031 C-336.04332142 135.85618705 -334.63707405 134.43010712 -333.23095703 133.00390625 C-327.89653505 127.66280789 -322.41053139 122.71403254 -316.49560547 118.02197266 C-313.94686296 115.95694767 -311.53220191 113.79004069 -309.125 111.5625 C-289.92575215 94.13873118 -267.46619328 79.29026546 -245.10644531 66.23339844 C-243.64438137 65.37730815 -242.18561445 64.51557195 -240.72949219 63.64941406 C-167.55115046 20.14845776 -84.63711319 0 0 0 Z " fill="#3FC6C0" transform="translate(480,0)"/>
<path d="M0 0 C0 52.8 0 105.6 0 160 C-16.335 160.99 -16.335 160.99 -33 162 C-41.74485257 163.14418632 -50.35174833 164.35995227 -59 166 C-60.0734668 166.20077148 -61.14693359 166.40154297 -62.25292969 166.60839844 C-110.67425675 175.90311635 -156.15521968 196.69190444 -195 227 C-195.81210937 227.63035156 -196.62421875 228.26070312 -197.4609375 228.91015625 C-199.99948903 230.91060058 -202.50393264 232.9467833 -205 235 C-205.49661133 235.40492676 -205.99322266 235.80985352 -206.50488281 236.22705078 C-220.91481649 248.0326203 -234.7690952 261.09231089 -246 276 C-246.40605469 276.53447754 -246.81210938 277.06895508 -247.23046875 277.61962891 C-249.84508822 281.06162233 -252.43278676 284.52242745 -255 288 C-254.28457031 288.26425781 -253.56914062 288.52851563 -252.83203125 288.80078125 C-235.02408652 296.34152474 -221.43130455 312.32465449 -214.18164062 329.99462891 C-206.09991167 351.53378698 -207.1376117 374.17160714 -216.5234375 395.16015625 C-226.43165811 414.21644299 -242.08466153 428.95713628 -262.625 435.8125 C-265.0744292 436.58115189 -267.53061389 437.29524766 -270 438 C-270.81597656 438.2475 -271.63195312 438.495 -272.47265625 438.75 C-284.56671923 441.82150806 -298.64925875 441.00358922 -310.56640625 437.65625 C-313.06266809 436.86981875 -313.06266809 436.86981875 -316 437 C-318.82313398 451.1156699 -319.12916058 465.63114963 -320 480 C-372.8 480 -425.6 480 -480 480 C-480 374.2602515 -447.0235181 273.54144081 -370 173 C-369.48550293 172.38640625 -368.97100586 171.7728125 -368.44091797 171.140625 C-365.00328142 167.0560451 -361.52003383 163.01372721 -358 159 C-357.20078125 158.08734375 -356.4015625 157.1746875 -355.578125 156.234375 C-349.73630951 149.72279723 -343.61367652 143.48736902 -337.45355225 137.27832031 C-336.04332142 135.85618705 -334.63707405 134.43010712 -333.23095703 133.00390625 C-327.89653505 127.66280789 -322.41053139 122.71403254 -316.49560547 118.02197266 C-313.94686296 115.95694767 -311.53220191 113.79004069 -309.125 111.5625 C-289.92575215 94.13873118 -267.46619328 79.29026546 -245.10644531 66.23339844 C-243.64438137 65.37730815 -242.18561445 64.51557195 -240.72949219 63.64941406 C-167.55115046 20.14845776 -84.63711319 0 0 0 Z " fill="#7FD9D5" transform="translate(480,0)"/>
<path d="M0 0 C101.31 0 202.62 0 307 0 C307 28.07371902 307 28.07371902 305.875 37.1875 C305.74375732 38.29150146 305.61251465 39.39550293 305.47729492 40.53295898 C302.62701703 62.93384539 297.28637569 84.64799622 290 106 C289.69368652 106.90089355 289.38737305 107.80178711 289.07177734 108.72998047 C275.58953102 147.66169663 253.82249278 183.28723683 226.10546875 213.67578125 C224.26022445 215.71273925 222.4691833 217.78270847 220.6875 219.875 C213.37754024 228.23165146 205.48718826 235.89924321 196.765625 242.76953125 C194.52160402 244.57932783 192.36820175 246.43367807 190.21484375 248.34765625 C149.46413598 284.17061599 96.04945443 306.55751353 43 316 C42.02627441 316.17499023 41.05254883 316.34998047 40.04931641 316.53027344 C30.34569827 318.23266258 20.88495124 319.54246684 11 319 C14.19418657 316.87054229 15.95696472 316.52658181 19.6875 315.875 C60.89323504 307.31885047 96.64493492 283.41914002 120.12109375 248.48828125 C144.61660045 210.85643462 151.54413627 166.9548932 142.4140625 123.19140625 C136.39465963 97.2931112 123.79214358 73.65658977 106 54 C105.26265625 53.13117187 104.5253125 52.26234375 103.765625 51.3671875 C78.20780792 21.61191871 38.62413409 4.1252001 0 1 C0 0.67 0 0.34 0 0 Z " fill="#7FD9D5" transform="translate(493,480)"/>
<path d="M0 0 C8.30573037 7.05418196 14.33037884 16.36470762 15.33203125 27.39453125 C15.47018724 41.50025795 12.32410484 51.07267837 2.33984375 61.41015625 C-2.44483432 65.84501115 -6.83547128 67.61109502 -13.00390625 70.6953125 C60.25609375 71.1903125 60.25609375 71.1903125 134.99609375 71.6953125 C134.99609375 91.7269487 134.99609375 91.7269487 133.55859375 99.1328125 C133.30070068 100.48789917 133.30070068 100.48789917 133.03759766 101.87036133 C126.48416703 133.64612572 111.4226104 159.85373875 89.99609375 183.6953125 C89.09310547 184.70851563 89.09310547 184.70851563 88.171875 185.7421875 C78.71539534 195.74652367 66.75154094 203.65710268 54.99609375 210.6953125 C53.88363281 211.37335938 52.77117187 212.05140625 51.625 212.75 C36.88055537 221.36515276 16.2712604 229.6953125 -1.00390625 229.6953125 C-1.00390625 230.3553125 -1.00390625 231.0153125 -1.00390625 231.6953125 C-8.92390625 231.6953125 -16.84390625 231.6953125 -25.00390625 231.6953125 C-25.00390625 205.2953125 -25.00390625 178.8953125 -25.00390625 151.6953125 C-28.63390625 151.6953125 -32.26390625 151.6953125 -36.00390625 151.6953125 C-51.27178163 149.43560748 -65.38057662 142.81416105 -77.00390625 132.6953125 C-77.88369141 132.02822266 -77.88369141 132.02822266 -78.78125 131.34765625 C-92.37847931 120.77203345 -101.98309419 101.82935541 -104.72265625 84.97949219 C-107.44897864 62.83758913 -103.03441937 41.45165275 -89.31640625 23.5703125 C-88.22107667 22.27114356 -87.11798335 20.9784411 -86.00390625 19.6953125 C-85.24078125 18.6846875 -84.47765625 17.6740625 -83.69140625 16.6328125 C-63.94345214 -4.9521606 -25.83741706 -18.86842567 0 0 Z " fill="#18B9B2" transform="translate(505.00390625,568.3046875)"/>
<path d="M0 0 C14.67605419 12.15360737 25.39264196 31.30451774 27.75 50.28125 C29.40397122 74.9135033 23.29127374 96.31159869 7.375 115.53125 C-3.76963463 127.68217218 -17.6306319 134.82354851 -33.25 139.28125 C-34.06597656 139.52875 -34.88195312 139.77625 -35.72265625 140.03125 C-54.85783435 144.89097777 -75.19702014 140.41275861 -92.25 131.28125 C-96.12629927 128.84148934 -99.70451822 126.17612991 -103.25 123.28125 C-103.89195312 122.79011719 -104.53390625 122.29898438 -105.1953125 121.79296875 C-118.37873774 111.2994352 -125.73081788 96.11604047 -130.25 80.28125 C-130.4975 79.46527344 -130.745 78.64929688 -131 77.80859375 C-136.06228584 57.87584326 -131.18147997 37.45586349 -121.28027344 19.99365234 C-118.94994102 16.12044108 -116.20621402 12.68604376 -113.25 9.28125 C-112.486875 8.270625 -111.72375 7.26 -110.9375 6.21875 C-81.22472168 -26.2580077 -33.50523909 -25.59427986 0 0 Z " fill="#FDFEFE" transform="translate(243.25,298.71875)"/>
<path d="M0 0 C0 26.4 0 52.8 0 80 C-8.415 80.99 -8.415 80.99 -17 82 C-30.49109969 85.85459991 -41.2103573 91.10439715 -52 100 C-52.99 100.721875 -53.98 101.44375 -55 102.1875 C-71.79172804 116.56715661 -78.08878989 138.97668881 -80 160 C-106.4 160 -132.8 160 -160 160 C-160 123.20495178 -149.4214014 88.78021804 -126 60 C-125.54222168 59.43539062 -125.08444336 58.87078125 -124.61279297 58.2890625 C-93.436977 20.09842736 -49.00713313 0 0 0 Z " fill="#7FD9D5" transform="translate(480,480)"/>
<path d="M0 0 C9.72244305 8.25741739 13.7780455 17.39726825 15.25390625 29.875 C15.82642009 40.29475186 11.64750932 50.80642427 4.99609375 58.6953125 C-1.99176379 66.43522646 -11.67985656 70.86450524 -22.0390625 71.8984375 C-33.80867326 72.17056723 -44.40408245 68.54120212 -53.2265625 60.7265625 C-60.50804567 53.21370509 -65.01034652 43.16677081 -65.25390625 32.6328125 C-65.07093485 21.61793409 -61.4384204 11.51225543 -53.89453125 3.4375 C-38.69733237 -10.76402034 -17.10682991 -12.49269414 0 0 Z " fill="#303942" transform="translate(216.00390625,328.3046875)"/>
<path d="M0 0 C0 13.2 0 26.4 0 40 C-13.2 40 -26.4 40 -40 40 C-35.22018612 59.52363613 -35.22018612 59.52363613 -22 73 C-17.55539651 75.66509119 -12.96636549 77.51009035 -8 79 C-8 79.33 -8 79.66 -8 80 C-31.76 80 -55.52 80 -80 80 C-80 60.17365376 -74.06518051 43.0477079 -61 28 C-60.236875 26.989375 -59.47375 25.97875 -58.6875 24.9375 C-43.34344095 8.16608662 -22.34975474 0 0 0 Z " fill="#3FC6C0" transform="translate(480,560)"/>
<path d="M0 0 C13.2 0 26.4 0 40 0 C40 13.2 40 26.4 40 40 C28.04213648 40 18.80548245 35.71052223 10.3203125 27.34375 C3.14766078 19.49308643 0 10.57434304 0 0 Z " fill="#1FBCB5" transform="translate(440,600)"/>
<path d="M0 0 C13.45279134 1.34527913 22.99838141 4.60489241 32 15 C37.54621335 23.29630669 40 29.94593986 40 40 C26.8 40 13.6 40 0 40 C0 26.8 0 13.6 0 0 Z " fill="#1FBCB5" transform="translate(480,560)"/>
</svg>
